<svg width="160" height="45" viewBox="0 0 160 45" fill="none" xmlns="http://www.w3.org/2000/svg">
<path fill-rule="evenodd" clip-rule="evenodd" d="M72.2143 0.730478V16.9521H76.8928V12.2166H78.2117C78.5601 12.2166 78.8255 12.2838 79.008 12.4181C79.2071 12.5357 79.373 12.7456 79.5057 13.0479L81.198 16.9521H86.0755L84.234 12.6952C84.0681 12.3258 83.9188 12.0403 83.7861 11.8388C83.6533 11.6205 83.4957 11.4358 83.3132 11.2846C84.2091 10.848 84.9225 10.2183 85.4534 9.39547C86.0009 8.55584 86.2746 7.59026 86.2746 6.49874C86.2746 5.35684 86.0672 4.35768 85.6525 3.50126C85.2377 2.62804 84.6073 1.94794 83.7612 1.46096C82.9317 0.973971 81.8616 0.730478 80.5509 0.730478H72.2143ZM79.3564 8.58942H76.8928V4.35768H79.5057C80.833 4.35768 81.4966 5.07137 81.4966 6.49874C81.4966 7.17045 81.3058 7.69102 80.9242 8.06045C80.5592 8.4131 80.0366 8.58942 79.3564 8.58942Z" fill="white"/>
<path fill-rule="evenodd" clip-rule="evenodd" d="M88.4855 16.801C89.1326 17.0697 89.8294 17.204 90.5759 17.204C91.5382 17.204 92.3428 17.0949 92.9898 16.8766C93.6534 16.6583 94.1926 16.3644 94.6074 15.995L94.8314 16.9521H98.9126V9.59698C98.9126 7.91772 98.3651 6.69186 97.2701 5.9194C96.1752 5.14694 94.6903 4.76071 92.8156 4.76071C91.8866 4.76071 90.9741 4.84467 90.0782 5.01259C89.1823 5.16373 88.4358 5.35684 87.8385 5.59194V8.43829C89.1657 8.01847 90.5096 7.80857 91.87 7.80857C92.8322 7.80857 93.5041 7.91772 93.8857 8.13602C94.2673 8.35432 94.4581 8.69857 94.4581 9.16877V9.39547H91.3971C89.7215 9.39547 88.4689 9.74811 87.6394 10.4534C86.8099 11.1419 86.3951 12.1159 86.3951 13.3753C86.3951 14.2485 86.5859 14.9706 86.9675 15.5416C87.3491 16.1125 87.8551 16.5323 88.4855 16.801ZM93.5124 14.1562C93.1474 14.3409 92.6995 14.4332 92.1686 14.4332C91.1566 14.4332 90.6506 14.0302 90.6506 13.2242C90.6506 12.4013 91.1649 11.9899 92.1935 11.9899H94.4581V13.4761C94.2092 13.7448 93.894 13.9715 93.5124 14.1562Z" fill="white"/>
<path d="M101.858 0V3.42569H106.91V0H101.858Z" fill="white"/>
<path d="M102.231 8.46348V16.9521H106.91V5.01259H100.912L100.514 8.46348H102.231Z" fill="white"/>
<path d="M109.154 5.01259V16.9521H113.832V9.11839C114.065 8.88329 114.363 8.68178 114.728 8.51385C115.11 8.34593 115.475 8.26196 115.823 8.26196C116.404 8.26196 116.81 8.37951 117.042 8.61461C117.275 8.84971 117.391 9.23594 117.391 9.7733V16.9521H122.069V9.29471C122.069 7.74979 121.729 6.60789 121.049 5.86902C120.369 5.13014 119.29 4.76071 117.814 4.76071C116.968 4.76071 116.171 4.87825 115.425 5.11335C114.695 5.34845 114.106 5.61713 113.658 5.9194L113.534 5.01259H109.154Z" fill="white"/>
<path d="M124.994 0V3.42569H130.046V0H124.994Z" fill="white"/>
<path d="M125.367 8.46348V16.9521H130.046V5.01259H124.048L123.65 8.46348H125.367Z" fill="white"/>
<path d="M132.29 5.01259V16.9521H136.968V9.11839C137.2 8.88329 137.499 8.68178 137.864 8.51385C138.245 8.34593 138.61 8.26196 138.959 8.26196C139.54 8.26196 139.946 8.37951 140.178 8.61461C140.411 8.84971 140.527 9.23594 140.527 9.7733V16.9521H145.205V9.29471C145.205 7.74979 144.865 6.60789 144.185 5.86902C143.505 5.13014 142.426 4.76071 140.95 4.76071C140.104 4.76071 139.307 4.87825 138.561 5.11335C137.831 5.34845 137.242 5.61713 136.794 5.9194L136.669 5.01259H132.29Z" fill="white"/>
<path fill-rule="evenodd" clip-rule="evenodd" d="M150.593 21.3098C151.273 21.3602 151.904 21.3854 152.485 21.3854C154.757 21.3854 156.433 21.0579 157.511 20.403C158.59 19.7649 159.129 18.8581 159.129 17.6826C159.129 16.5743 158.781 15.7347 158.084 15.1637C157.387 14.5928 156.433 14.3073 155.222 14.3073H152.509C152.244 14.3073 152.037 14.2821 151.887 14.2317C151.738 14.1646 151.663 14.047 151.663 13.8791C151.663 13.644 151.796 13.4761 152.062 13.3753C152.327 13.2746 152.642 13.2074 153.007 13.1738C153.223 13.1906 153.455 13.2158 153.704 13.2494C153.953 13.2662 154.185 13.2746 154.401 13.2746C155.91 13.2746 157.014 12.9219 157.711 12.2166C158.424 11.4945 158.781 10.5206 158.781 9.29471C158.781 8.74056 158.631 8.27036 158.333 7.88413H159.9L160 5.01259H155.371C155.139 4.96222 154.766 4.91184 154.251 4.86146C153.737 4.79429 153.273 4.76071 152.858 4.76071C150.9 4.76071 149.399 5.12175 148.354 5.84383C147.325 6.56591 146.811 7.69941 146.811 9.24433C146.811 10.0672 146.968 10.7473 147.283 11.2846C147.599 11.822 148.096 12.267 148.777 12.6196C147.566 13.0563 146.96 13.8287 146.96 14.937C146.96 15.7263 147.283 16.3224 147.931 16.7254C148.594 17.1117 149.531 17.3048 150.743 17.3048H153.853C154.318 17.3048 154.633 17.33 154.799 17.3804C154.965 17.4475 155.048 17.5819 155.048 17.7834C155.048 18.0185 154.791 18.178 154.276 18.262C153.779 18.3627 153.09 18.4131 152.211 18.4131C151.697 18.4131 151.132 18.3879 150.519 18.3375C149.905 18.2872 149.299 18.2116 148.702 18.1108C148.121 18.0101 147.607 17.8841 147.159 17.733V20.7557C147.557 20.89 148.055 21.0076 148.652 21.1083C149.266 21.2091 149.913 21.2762 150.593 21.3098ZM154.401 10.3023C154.119 10.5542 153.613 10.6801 152.883 10.6801C152.169 10.6801 151.663 10.5542 151.365 10.3023C151.083 10.0336 150.942 9.61377 150.942 9.04282C150.942 8.43829 151.091 8.01008 151.39 7.75819C151.705 7.48951 152.203 7.35516 152.883 7.35516C153.613 7.35516 154.119 7.48951 154.401 7.75819C154.683 8.02687 154.824 8.45508 154.824 9.04282C154.824 9.63056 154.683 10.0504 154.401 10.3023Z" fill="white"/>
<path d="M0 16.9521V0.730478H4.67848V16.9521H0Z" fill="white"/>
<path d="M11.53 17.204C10.518 17.204 9.56402 17.1285 8.66814 16.9773C7.78885 16.843 7.09206 16.6667 6.57776 16.4484V13.0479C7.15842 13.3165 7.84692 13.5264 8.64326 13.6776C9.45619 13.8287 10.1447 13.9043 10.7088 13.9043C11.306 13.9043 11.754 13.8875 12.0526 13.8539C12.3678 13.8203 12.5254 13.6776 12.5254 13.4257C12.5254 13.1402 12.2517 12.9219 11.7042 12.7708C11.1567 12.6196 10.4682 12.4013 9.63868 12.1159C8.56031 11.7296 7.75567 11.2762 7.22478 10.7557C6.69389 10.2351 6.42844 9.47943 6.42844 8.48867C6.42844 7.29639 6.89297 6.38119 7.82203 5.74307C8.7511 5.08816 10.211 4.76071 12.2019 4.76071C12.965 4.76071 13.7531 4.81948 14.566 4.93703C15.3789 5.05458 16.0177 5.18892 16.4822 5.34005V8.66499C15.9845 8.44668 15.437 8.28715 14.8398 8.1864C14.2591 8.08564 13.7282 8.03527 13.2471 8.03527C12.7162 8.03527 12.2434 8.06045 11.8286 8.11083C11.4138 8.16121 11.2065 8.30395 11.2065 8.53904C11.2065 8.80773 11.4387 9.00084 11.9033 9.11839C12.3844 9.23594 13.0231 9.42066 13.8195 9.67255C14.7153 9.94123 15.4121 10.2351 15.9098 10.5542C16.4241 10.8732 16.7808 11.2594 16.9799 11.7128C17.1956 12.1662 17.3034 12.7288 17.3034 13.4005C17.3034 14.6096 16.814 15.55 15.8352 16.2217C14.8729 16.8766 13.4379 17.204 11.53 17.204Z" fill="white"/>
<path d="M37.4984 16.9521V0.730478H42.1769V16.9521H37.4984Z" fill="white"/>
<path d="M49.4764 17.204C47.9003 17.204 46.7555 16.801 46.0422 15.995C45.3288 15.1889 44.9721 14.0974 44.9721 12.7204V8.51385H43.4292V5.01259H44.9721V2.56927L49.6506 1.43577V5.01259H52.3631L52.1889 8.51385H49.6506V12.3678C49.6506 12.8715 49.775 13.2326 50.0238 13.4509C50.2727 13.6524 50.6543 13.7531 51.1686 13.7531C51.6497 13.7531 52.1391 13.6692 52.6368 13.5013V16.6499C51.7575 17.0193 50.7041 17.204 49.4764 17.204Z" fill="white"/>
<path d="M30.851 40.8186C27.9974 40.8186 25.8241 40.1133 24.331 38.7028C22.8378 37.2754 22.0913 35.2435 22.0913 32.6071C22.0913 29.8867 22.8627 27.7876 24.4056 26.3098C25.9485 24.8321 28.2048 24.0932 31.1745 24.0932C32.1699 24.0932 33.0658 24.152 33.8621 24.2695C34.6751 24.3871 35.4382 24.5634 36.1516 24.7985V28.8539C35.4216 28.5684 34.6668 28.3753 33.887 28.2746C33.1073 28.1738 32.3109 28.1234 31.498 28.1234C29.9551 28.1234 28.7938 28.4761 28.014 29.1814C27.2509 29.8866 26.8693 31.0286 26.8693 32.6071C26.8693 34.0848 27.2011 35.1511 27.8647 35.806C28.5449 36.461 29.5403 36.7884 30.851 36.7884C31.2823 36.7884 31.6888 36.7632 32.0704 36.7128C32.452 36.6457 32.8087 36.5617 33.1405 36.461V34.0932H29.9551V31.1713H37.0475V39.3325C36.4336 39.7187 35.6124 40.063 34.5838 40.3652C33.5718 40.6675 32.3275 40.8186 30.851 40.8186Z" fill="white"/>
<path fill-rule="evenodd" clip-rule="evenodd" d="M45.1942 40.8186C42.8384 40.8186 41.0964 40.2897 39.9682 39.2317C38.8567 38.1738 38.3009 36.6289 38.3009 34.597C38.3009 32.5819 38.865 31.0453 39.9931 29.9874C41.1213 28.9127 42.855 28.3753 45.1942 28.3753C47.55 28.3753 49.292 28.9127 50.4202 29.9874C51.5649 31.0453 52.1373 32.5819 52.1373 34.597C52.1373 36.6289 51.5732 38.1738 50.4451 39.2317C49.3169 40.2897 47.5666 40.8186 45.1942 40.8186ZM45.1942 37.3678C45.9574 37.3678 46.5048 37.1495 46.8367 36.7128C47.185 36.2762 47.3592 35.571 47.3592 34.597C47.3592 33.6398 47.185 32.9429 46.8367 32.5063C46.5048 32.0529 45.9574 31.8262 45.1942 31.8262C44.4476 31.8262 43.9084 32.0529 43.5766 32.5063C43.2448 32.9429 43.0789 33.6398 43.0789 34.597C43.0789 35.571 43.2448 36.2762 43.5766 36.7128C43.9084 37.1495 44.4476 37.3678 45.1942 37.3678Z" fill="white"/>
<path d="M58.9421 40.8186C57.366 40.8186 56.2213 40.4156 55.5079 39.6096C54.7945 38.8035 54.4378 37.712 54.4378 36.335V32.1285H52.8949V28.6272H54.4378V26.1839L59.1163 25.0504V28.6272H61.8288L61.6546 32.1285H59.1163V35.9824C59.1163 36.4861 59.2407 36.8472 59.4896 37.0655C59.7384 37.267 60.12 37.3678 60.6343 37.3678C61.1154 37.3678 61.6049 37.2838 62.1026 37.1159V40.2645C61.2233 40.6339 60.1698 40.8186 58.9421 40.8186Z" fill="white"/>
<path d="M63.3439 40.5668V23.5894H68.0224V29.3577C68.4372 29.0722 68.9515 28.8371 69.5653 28.6524C70.1958 28.4677 70.8677 28.3753 71.581 28.3753C73.2069 28.3753 74.3931 28.7615 75.1397 29.534C75.8863 30.2897 76.2595 31.4652 76.2595 33.0605V40.5668H71.5562V33.4131C71.5562 32.8589 71.44 32.4643 71.2078 32.2292C70.9921 31.9941 70.5939 31.8766 70.0133 31.8766C69.6649 31.8766 69.2999 31.9605 68.9183 32.1285C68.5533 32.2964 68.2547 32.4979 68.0224 32.733V40.5668H63.3439Z" fill="white"/>
<path fill-rule="evenodd" clip-rule="evenodd" d="M84.7121 40.8186C83.3351 40.8186 82.1157 40.5919 81.0539 40.1385C80.0087 39.6683 79.1875 38.9715 78.5902 38.0479C78.0096 37.1243 77.7192 35.9824 77.7192 34.6222C77.7192 32.7246 78.2501 31.2133 79.3119 30.0882C80.3737 28.9463 81.9581 28.3753 84.065 28.3753C85.9895 28.3753 87.491 28.8707 88.5693 29.8615C89.6643 30.8522 90.2118 32.204 90.2118 33.9169V36.0076H82.0244C82.2401 36.6457 82.6632 37.0991 83.2936 37.3678C83.924 37.6364 84.7784 37.7708 85.8568 37.7708C86.537 37.7708 87.2172 37.712 87.8974 37.5945C88.5942 37.4601 89.15 37.309 89.5648 37.1411V39.9874C88.4034 40.5416 86.7859 40.8186 84.7121 40.8186ZM82.0244 33.4383H86.1803V33.0101C86.1803 32.5399 86.031 32.1537 85.7324 31.8514C85.4503 31.5491 84.9443 31.398 84.2144 31.398C83.4014 31.398 82.8291 31.5743 82.4973 31.927C82.182 32.2628 82.0244 32.7666 82.0244 33.4383Z" fill="white"/>
<path d="M91.9477 28.6272H96.3276L96.452 29.534C96.9 29.2317 97.4889 28.9631 98.2189 28.728C98.9655 28.4929 99.7618 28.3753 100.608 28.3753C102.084 28.3753 103.163 28.7448 103.843 29.4836C104.523 30.2225 104.863 31.3644 104.863 32.9093V40.5668H100.185V33.3879C100.185 32.8505 100.069 32.4643 99.8365 32.2292C99.6042 31.9941 99.1977 31.8766 98.6171 31.8766C98.2687 31.8766 97.9037 31.9605 97.5221 32.1285C97.1571 32.2964 96.8585 32.4979 96.6262 32.733V40.5668H91.9477V28.6272Z" fill="white"/>
<path fill-rule="evenodd" clip-rule="evenodd" d="M114.83 40.8186C114.067 40.8186 113.395 40.7179 112.815 40.5164C112.251 40.2981 111.728 40.0042 111.247 39.6348L111.023 40.5668H106.967V23.5894H111.645V29.0554C112.043 28.8371 112.508 28.6692 113.039 28.5516C113.586 28.4341 114.134 28.3753 114.681 28.3753C116.44 28.3753 117.817 28.8539 118.812 29.8111C119.824 30.7515 120.33 32.3132 120.33 34.4962C120.33 36.6289 119.832 38.2158 118.837 39.2569C117.842 40.2981 116.506 40.8186 114.83 40.8186ZM113.487 37.3929C114.217 37.3929 114.739 37.1746 115.054 36.738C115.386 36.2846 115.552 35.5542 115.552 34.5466C115.552 33.5223 115.378 32.8086 115.029 32.4055C114.698 32.0025 114.183 31.801 113.487 31.801C112.723 31.801 112.11 32.0109 111.645 32.4307V36.6625C112.159 37.1495 112.773 37.3929 113.487 37.3929Z" fill="white"/>
<path d="M126.363 40.8186C124.986 40.8186 123.908 40.424 123.128 39.6348C122.348 38.8455 121.958 37.6868 121.958 36.1587V28.6272H126.637V35.7809C126.637 36.822 127.159 37.3426 128.204 37.3426C128.586 37.3426 128.959 37.2586 129.324 37.0907C129.689 36.9228 129.98 36.7128 130.195 36.461V28.6272H134.874V40.5668H130.494L130.369 39.66C129.905 39.9958 129.333 40.2729 128.652 40.4912C127.989 40.7095 127.226 40.8186 126.363 40.8186Z" fill="white"/>
<path d="M137.101 28.6272H141.606L141.73 29.5844C142.211 29.2989 142.825 29.0386 143.572 28.8035C144.318 28.5684 145.073 28.4257 145.836 28.3753V31.9018C145.405 31.9353 144.932 31.9941 144.418 32.0781C143.92 32.162 143.431 32.2712 142.95 32.4055C142.485 32.5231 142.095 32.6574 141.78 32.8086V40.5668H137.101V28.6272Z" fill="white"/>
<path fill-rule="evenodd" clip-rule="evenodd" d="M152.339 45C151.758 45 151.128 44.9748 150.447 44.9244C149.767 44.8908 149.12 44.8237 148.506 44.7229C147.909 44.6222 147.411 44.5046 147.013 44.3703V41.3476C147.461 41.4987 147.975 41.6247 148.556 41.7254C149.153 41.8262 149.759 41.9018 150.373 41.9521C150.987 42.0025 151.551 42.0277 152.065 42.0277C152.944 42.0277 153.633 41.9773 154.131 41.8766C154.645 41.7926 154.902 41.6331 154.902 41.398C154.902 41.1965 154.819 41.0621 154.653 40.995C154.487 40.9446 154.172 40.9194 153.707 40.9194H150.597C149.386 40.9194 148.448 40.7263 147.785 40.3401C147.138 39.937 146.814 39.3409 146.814 38.5516C146.814 37.4433 147.42 36.6709 148.631 36.2343C147.951 35.8816 147.453 35.4366 147.138 34.8992C146.822 34.3619 146.665 33.6818 146.665 32.8589C146.665 31.314 147.179 30.1805 148.208 29.4584C149.253 28.7364 150.754 28.3753 152.712 28.3753C153.127 28.3753 153.591 28.4089 154.106 28.4761C154.62 28.5264 154.993 28.5768 155.225 28.6272H159.854L159.755 31.4987H158.187C158.485 31.885 158.635 32.3552 158.635 32.9093C158.635 34.1352 158.278 35.1092 157.565 35.8312C156.868 36.5365 155.765 36.8892 154.255 36.8892C154.039 36.8892 153.807 36.8808 153.558 36.864C153.309 36.8304 153.077 36.8052 152.861 36.7884C152.496 36.822 152.181 36.8892 151.916 36.9899C151.65 37.0907 151.518 37.2586 151.518 37.4937C151.518 37.6616 151.592 37.7792 151.742 37.8463C151.891 37.8967 152.098 37.9219 152.364 37.9219H155.076C156.287 37.9219 157.241 38.2074 157.938 38.7783C158.635 39.3493 158.983 40.1889 158.983 41.2972C158.983 42.4727 158.444 43.3795 157.366 44.0176C156.287 44.6725 154.612 45 152.339 45ZM152.737 34.2947C153.467 34.2947 153.973 34.1688 154.255 33.9169C154.537 33.665 154.678 33.2452 154.678 32.6574C154.678 32.0697 154.537 31.6415 154.255 31.3728C153.973 31.1041 153.467 30.9698 152.737 30.9698C152.057 30.9698 151.559 31.1041 151.244 31.3728C150.945 31.6247 150.796 32.0529 150.796 32.6574C150.796 33.2284 150.937 33.6482 151.219 33.9169C151.518 34.1688 152.024 34.2947 152.737 34.2947Z" fill="white"/>
<path d="M0.10936 24.3451V40.5668H4.78784V24.3451H0.10936Z" fill="white"/>
<path d="M7.03551 28.6272V40.5668H11.714V32.733C11.9463 32.4979 12.2449 32.2964 12.6099 32.1285C12.9915 31.9605 13.3564 31.8766 13.7048 31.8766C14.2855 31.8766 14.692 31.9941 14.9242 32.2292C15.1565 32.4643 15.2726 32.8505 15.2726 33.3879V40.5668H19.9511V32.9093C19.9511 31.3644 19.611 30.2225 18.9308 29.4836C18.2506 28.7448 17.1722 28.3753 15.6957 28.3753C14.8496 28.3753 14.0532 28.4929 13.3067 28.728C12.5767 28.9631 11.9877 29.2317 11.5398 29.534L11.4154 28.6272H7.03551Z" fill="white"/>
<path d="M29.5715 1.3018C29.9608 1.48552 30.1292 1.95386 29.9476 2.34787L28.152 6.24566C27.9705 6.63966 27.5078 6.81013 27.1185 6.6264C26.7292 6.44267 26.5608 5.97433 26.7423 5.58033L28.538 1.68253C28.7195 1.28853 29.1822 1.11807 29.5715 1.3018Z" fill="white"/>
<path d="M23.0188 2.34208C23.2003 1.94807 23.0319 1.47973 22.6427 1.29601C22.2534 1.11228 21.7907 1.28274 21.6092 1.67675L20.5335 4.01184C20.3519 4.40584 20.5203 4.87418 20.9096 5.05791C21.2989 5.24164 21.7616 5.07117 21.9431 4.67717L23.0188 2.34208Z" fill="white"/>
<path d="M26.1247 1.28282C26.514 1.46655 26.6824 1.93489 26.5009 2.32889L22.7496 10.4715C22.5681 10.8655 22.1054 11.036 21.7162 10.8523C21.3269 10.6685 21.1585 10.2002 21.34 9.8062L25.0913 1.66356C25.2728 1.26956 25.7355 1.09909 26.1247 1.28282Z" fill="white"/>
<path d="M31.9364 6.26074C32.1179 5.86674 31.9495 5.3984 31.5602 5.21467C31.1709 5.03095 30.7082 5.20141 30.5267 5.59541L28.3473 10.3262C28.1658 10.7202 28.3342 11.1885 28.7235 11.3722C29.1127 11.556 29.5754 11.3855 29.7569 10.9915L31.9364 6.26074Z" fill="white"/>
<path d="M33.1589 1.29843C33.5482 1.48216 33.7166 1.9505 33.5351 2.3445L32.8242 3.88759C32.6427 4.28159 32.18 4.45205 31.7907 4.26833C31.4015 4.0846 31.2331 3.61626 31.4146 3.22226L32.1255 1.67917C32.307 1.28517 32.7697 1.11471 33.1589 1.29843Z" fill="white"/>
<path d="M64.9429 2.34787C65.1245 1.95386 64.9561 1.48552 64.5668 1.3018C64.1775 1.11807 63.7148 1.28853 63.5333 1.68253L61.7376 5.58033C61.5561 5.97433 61.7245 6.44267 62.1138 6.6264C62.5031 6.81013 62.9658 6.63966 63.1473 6.24566L64.9429 2.34787Z" fill="white"/>
<path d="M57.638 1.29601C58.0272 1.47973 58.1957 1.94807 58.0141 2.34208L56.9384 4.67717C56.7569 5.07117 56.2942 5.24164 55.9049 5.05791C55.5157 4.87418 55.3472 4.40584 55.5288 4.01184L56.6045 1.67675C56.786 1.28274 57.2487 1.11228 57.638 1.29601Z" fill="white"/>
<path d="M61.4962 2.32889C61.6777 1.93489 61.5093 1.46655 61.12 1.28282C60.7308 1.09909 60.2681 1.26956 60.0866 1.66356L56.3353 9.8062C56.1538 10.2002 56.3222 10.6685 56.7115 10.8523C57.1007 11.036 57.5634 10.8655 57.745 10.4715L61.4962 2.32889Z" fill="white"/>
<path d="M66.5555 5.21467C66.9448 5.3984 67.1132 5.86674 66.9317 6.26074L64.7522 10.9915C64.5707 11.3855 64.108 11.556 63.7188 11.3722C63.3295 11.1885 63.1611 10.7202 63.3426 10.3262L65.522 5.59541C65.7035 5.20141 66.1662 5.03095 66.5555 5.21467Z" fill="white"/>
<path d="M68.5304 2.3445C68.7119 1.9505 68.5435 1.48216 68.1542 1.29843C67.765 1.11471 67.3023 1.28517 67.1208 1.67917L66.4099 3.22226C66.2284 3.61626 66.3968 4.0846 66.786 4.26833C67.1753 4.45205 67.638 4.28159 67.8195 3.88759L68.5304 2.3445Z" fill="white"/>
</svg>
