<svg width="100" height="100" viewBox="0 0 100 100" fill="none" xmlns="http://www.w3.org/2000/svg">
<rect width="100" height="100" rx="3" fill="url(#paint0_linear_199_1961)"/>
<path d="M62.1875 54.0469C73.052 54.0469 81.8594 45.2395 81.8594 34.375C81.8594 23.5105 73.052 14.7031 62.1875 14.7031C51.323 14.7031 42.5156 23.5105 42.5156 34.375C42.5156 45.2395 51.323 54.0469 62.1875 54.0469Z" fill="#EFCC00"/>
<path d="M62.1875 3.125V10.0625" stroke="#EFCC00" stroke-width="3" stroke-miterlimit="10" stroke-linecap="round"/>
<path d="M62.1875 58.6875V65.625" stroke="#EFCC00" stroke-width="3" stroke-miterlimit="10" stroke-linecap="round"/>
<path d="M30.9375 34.375H37.8906" stroke="#EFCC00" stroke-width="3" stroke-miterlimit="10" stroke-linecap="round"/>
<path d="M86.5 34.375H93.4375" stroke="#EFCC00" stroke-width="3" stroke-miterlimit="10" stroke-linecap="round"/>
<path d="M40.0938 12.2812L45 17.1875" stroke="#EFCC00" stroke-width="3" stroke-miterlimit="10" stroke-linecap="round"/>
<path d="M79.375 51.5625L84.2812 56.4687" stroke="#EFCC00" stroke-width="3" stroke-miterlimit="10" stroke-linecap="round"/>
<path d="M40.0938 56.4687L45 51.5625" stroke="#EFCC00" stroke-width="3" stroke-miterlimit="10" stroke-linecap="round"/>
<path d="M79.375 17.1875L84.2812 12.2812" stroke="#EFCC00" stroke-width="3" stroke-miterlimit="10" stroke-linecap="round"/>
<path d="M36.7188 24.8438C41.6994 24.8337 46.5881 26.185 50.8566 28.7515C55.125 31.3181 58.6109 35.0024 60.9375 39.4063C63.7878 37.7398 66.9838 36.7527 70.2775 36.5215C73.5711 36.2904 76.8737 36.8215 79.9288 38.0736C82.9839 39.3257 85.7093 41.2651 87.8935 43.7412C90.0776 46.2173 91.6616 49.1635 92.5225 52.351C93.3835 55.5385 93.4982 58.8816 92.8578 62.1206C92.2173 65.3596 90.8389 68.4074 88.8297 71.0274C86.8204 73.6474 84.2344 75.7691 81.2723 77.2276C78.3101 78.6862 75.0517 79.4424 71.75 79.4376L36.7188 79.5313C29.4667 79.5313 22.5117 76.6505 17.3838 71.5225C12.2559 66.3946 9.375 59.4396 9.375 52.1876C9.375 44.9355 12.2559 37.9806 17.3838 32.8526C22.5117 27.7247 29.4667 24.8438 36.7188 24.8438Z" fill="url(#paint1_linear_199_1961)"/>
<path d="M92.3957 63.7235C95.5886 52.2956 88.9128 40.4432 77.4849 37.2503C66.0571 34.0575 54.2047 40.7332 51.0118 52.1611C47.819 63.5889 54.4947 75.4414 65.9226 78.6342C77.3504 81.8271 89.2028 75.1513 92.3957 63.7235Z" fill="url(#paint2_linear_199_1961)"/>
<path d="M50.7812 86.7188V97.6562" stroke="#0BAEFF" stroke-width="3" stroke-miterlimit="10" stroke-linecap="round"/>
<path d="M41.4062 83.5938V94.5312" stroke="#0BAEFF" stroke-width="3" stroke-miterlimit="10" stroke-linecap="round"/>
<path d="M60.1562 83.5938V94.5312" stroke="#0BAEFF" stroke-width="3" stroke-miterlimit="10" stroke-linecap="round"/>
<defs>
<linearGradient id="paint0_linear_199_1961" x1="47.2581" y1="5.88068e-08" x2="46.9624" y2="99.9997" gradientUnits="userSpaceOnUse">
<stop stop-color="#1C77C3"/>
<stop offset="1" stop-color="#A9E4EF"/>
</linearGradient>
<linearGradient id="paint1_linear_199_1961" x1="29.8125" y1="81.8594" x2="62.7656" y2="39.1876" gradientUnits="userSpaceOnUse">
<stop stop-color="#F2F2F2"/>
<stop offset="1" stop-color="#CFCFCF"/>
</linearGradient>
<linearGradient id="paint2_linear_199_1961" x1="80.4889" y1="50.3058" x2="55.5814" y2="71.9811" gradientUnits="userSpaceOnUse">
<stop offset="0.02" stop-color="white"/>
<stop offset="1" stop-color="white" stop-opacity="0"/>
</linearGradient>
</defs>
</svg>
