<svg width="593" height="476" viewBox="0 0 593 476" fill="none" xmlns="http://www.w3.org/2000/svg">
<g filter="url(#filter0_i_160_357)">
<path fill-rule="evenodd" clip-rule="evenodd" d="M228.156 30C277.66 30 319.713 61.8645 334.875 106.178C348.44 99.9815 363.523 96.5278 379.415 96.5278C418.911 96.5278 453.419 117.861 472.016 149.621C477.758 147.99 483.819 147.117 490.084 147.117C526.489 147.117 556 176.592 556 212.952C556 249.311 526.489 278.786 490.084 278.786C479.883 278.786 470.224 276.472 461.603 272.341C441.939 295.768 412.419 310.664 379.415 310.664C356.997 310.664 336.186 303.791 318.979 292.04C305.534 324.918 273.197 348.086 235.441 348.086C197.214 348.086 164.542 324.336 151.408 290.803C139.453 299.792 124.583 305.12 108.467 305.12C68.9967 305.12 37 273.163 37 233.741C37 194.32 68.9967 162.363 108.467 162.363C111.433 162.363 114.357 162.543 117.229 162.894C116.031 156.315 115.405 149.536 115.405 142.612C115.405 80.4182 165.885 30 228.156 30Z" fill="url(#paint0_linear_160_357)"/>
</g>
<g opacity="0.5" filter="url(#filter1_if_160_357)">
<ellipse cx="490.084" cy="212.952" rx="65.9158" ry="65.8348" fill="url(#paint1_linear_160_357)"/>
</g>
<g opacity="0.5" filter="url(#filter2_if_160_357)">
<ellipse cx="235.441" cy="257.996" rx="90.2005" ry="90.0898" fill="url(#paint2_linear_160_357)"/>
</g>
<g opacity="0.5" filter="url(#filter3_if_160_357)">
<ellipse cx="228.156" cy="142.612" rx="112.751" ry="112.612" fill="url(#paint3_linear_160_357)"/>
</g>
<g opacity="0.5" filter="url(#filter4_if_160_357)">
<ellipse cx="379.415" cy="203.596" rx="107.2" ry="107.068" fill="url(#paint4_linear_160_357)"/>
</g>
<g filter="url(#filter5_f_160_357)">
<path d="M532.409 409.171C532.409 424.536 426.789 409.171 296.5 409.171C166.211 409.171 60.5911 424.536 60.5911 409.171C60.5911 393.806 166.211 381.35 296.5 381.35C426.789 381.35 532.409 393.806 532.409 409.171Z" fill="#A2C6E0"/>
</g>
<defs>
<filter id="filter0_i_160_357" x="37" y="5" width="549" height="343.086" filterUnits="userSpaceOnUse" color-interpolation-filters="sRGB">
<feFlood flood-opacity="0" result="BackgroundImageFix"/>
<feBlend mode="normal" in="SourceGraphic" in2="BackgroundImageFix" result="shape"/>
<feColorMatrix in="SourceAlpha" type="matrix" values="0 0 0 0 0 0 0 0 0 0 0 0 0 0 0 0 0 0 127 0" result="hardAlpha"/>
<feOffset dx="30" dy="-25"/>
<feGaussianBlur stdDeviation="30"/>
<feComposite in2="hardAlpha" operator="arithmetic" k2="-1" k3="1"/>
<feColorMatrix type="matrix" values="0 0 0 0 0.588235 0 0 0 0 0.803922 0 0 0 0 0.980392 0 0 0 1 0"/>
<feBlend mode="normal" in2="shape" result="effect1_innerShadow_160_357"/>
</filter>
<filter id="filter1_if_160_357" x="394.168" y="117.117" width="191.832" height="191.67" filterUnits="userSpaceOnUse" color-interpolation-filters="sRGB">
<feFlood flood-opacity="0" result="BackgroundImageFix"/>
<feBlend mode="normal" in="SourceGraphic" in2="BackgroundImageFix" result="shape"/>
<feColorMatrix in="SourceAlpha" type="matrix" values="0 0 0 0 0 0 0 0 0 0 0 0 0 0 0 0 0 0 127 0" result="hardAlpha"/>
<feOffset dx="30" dy="-25"/>
<feGaussianBlur stdDeviation="30"/>
<feComposite in2="hardAlpha" operator="arithmetic" k2="-1" k3="1"/>
<feColorMatrix type="matrix" values="0 0 0 0 0.588235 0 0 0 0 0.803922 0 0 0 0 0.980392 0 0 0 1 0"/>
<feBlend mode="normal" in2="shape" result="effect1_innerShadow_160_357"/>
<feGaussianBlur stdDeviation="15" result="effect2_foregroundBlur_160_357"/>
</filter>
<filter id="filter2_if_160_357" x="115.241" y="137.907" width="240.401" height="240.18" filterUnits="userSpaceOnUse" color-interpolation-filters="sRGB">
<feFlood flood-opacity="0" result="BackgroundImageFix"/>
<feBlend mode="normal" in="SourceGraphic" in2="BackgroundImageFix" result="shape"/>
<feColorMatrix in="SourceAlpha" type="matrix" values="0 0 0 0 0 0 0 0 0 0 0 0 0 0 0 0 0 0 127 0" result="hardAlpha"/>
<feOffset dx="30" dy="-25"/>
<feGaussianBlur stdDeviation="30"/>
<feComposite in2="hardAlpha" operator="arithmetic" k2="-1" k3="1"/>
<feColorMatrix type="matrix" values="0 0 0 0 0.588235 0 0 0 0 0.803922 0 0 0 0 0.980392 0 0 0 1 0"/>
<feBlend mode="normal" in2="shape" result="effect1_innerShadow_160_357"/>
<feGaussianBlur stdDeviation="15" result="effect2_foregroundBlur_160_357"/>
</filter>
<filter id="filter3_if_160_357" x="85.4052" y="0" width="285.501" height="285.224" filterUnits="userSpaceOnUse" color-interpolation-filters="sRGB">
<feFlood flood-opacity="0" result="BackgroundImageFix"/>
<feBlend mode="normal" in="SourceGraphic" in2="BackgroundImageFix" result="shape"/>
<feColorMatrix in="SourceAlpha" type="matrix" values="0 0 0 0 0 0 0 0 0 0 0 0 0 0 0 0 0 0 127 0" result="hardAlpha"/>
<feOffset dx="30" dy="-25"/>
<feGaussianBlur stdDeviation="30"/>
<feComposite in2="hardAlpha" operator="arithmetic" k2="-1" k3="1"/>
<feColorMatrix type="matrix" values="0 0 0 0 0.588235 0 0 0 0 0.803922 0 0 0 0 0.980392 0 0 0 1 0"/>
<feBlend mode="normal" in2="shape" result="effect1_innerShadow_160_357"/>
<feGaussianBlur stdDeviation="15" result="effect2_foregroundBlur_160_357"/>
</filter>
<filter id="filter4_if_160_357" x="242.215" y="66.5278" width="274.4" height="274.136" filterUnits="userSpaceOnUse" color-interpolation-filters="sRGB">
<feFlood flood-opacity="0" result="BackgroundImageFix"/>
<feBlend mode="normal" in="SourceGraphic" in2="BackgroundImageFix" result="shape"/>
<feColorMatrix in="SourceAlpha" type="matrix" values="0 0 0 0 0 0 0 0 0 0 0 0 0 0 0 0 0 0 127 0" result="hardAlpha"/>
<feOffset dx="30" dy="-25"/>
<feGaussianBlur stdDeviation="30"/>
<feComposite in2="hardAlpha" operator="arithmetic" k2="-1" k3="1"/>
<feColorMatrix type="matrix" values="0 0 0 0 0.588235 0 0 0 0 0.803922 0 0 0 0 0.980392 0 0 0 1 0"/>
<feBlend mode="normal" in2="shape" result="effect1_innerShadow_160_357"/>
<feGaussianBlur stdDeviation="15" result="effect2_foregroundBlur_160_357"/>
</filter>
<filter id="filter5_f_160_357" x="0.591064" y="321.35" width="591.818" height="154.65" filterUnits="userSpaceOnUse" color-interpolation-filters="sRGB">
<feFlood flood-opacity="0" result="BackgroundImageFix"/>
<feBlend mode="normal" in="SourceGraphic" in2="BackgroundImageFix" result="shape"/>
<feGaussianBlur stdDeviation="30" result="effect1_foregroundBlur_160_357"/>
</filter>
<linearGradient id="paint0_linear_160_357" x1="296.5" y1="30" x2="296.5" y2="348.086" gradientUnits="userSpaceOnUse">
<stop stop-color="#FAFEFF"/>
<stop offset="1" stop-color="#A9E4EF" stop-opacity="0"/>
</linearGradient>
<linearGradient id="paint1_linear_160_357" x1="490.084" y1="147.117" x2="490.084" y2="278.786" gradientUnits="userSpaceOnUse">
<stop stop-color="#FAFEFF"/>
<stop offset="1" stop-color="#A9E4EF" stop-opacity="0"/>
</linearGradient>
<linearGradient id="paint2_linear_160_357" x1="235.441" y1="167.907" x2="235.441" y2="348.086" gradientUnits="userSpaceOnUse">
<stop stop-color="#FAFEFF"/>
<stop offset="1" stop-color="#A9E4EF" stop-opacity="0"/>
</linearGradient>
<linearGradient id="paint3_linear_160_357" x1="228.156" y1="30" x2="228.156" y2="255.224" gradientUnits="userSpaceOnUse">
<stop stop-color="#FAFEFF"/>
<stop offset="1" stop-color="#A9E4EF" stop-opacity="0"/>
</linearGradient>
<linearGradient id="paint4_linear_160_357" x1="379.415" y1="96.5278" x2="379.415" y2="310.664" gradientUnits="userSpaceOnUse">
<stop stop-color="#FAFEFF"/>
<stop offset="1" stop-color="#A9E4EF" stop-opacity="0"/>
</linearGradient>
</defs>
</svg>
