<svg width="48" height="48" viewBox="0 0 48 48" fill="none" xmlns="http://www.w3.org/2000/svg">
<path d="M9.58539 8.48675L14.6864 14.3132L21.6505 11.1243L17.8389 17.9141L22.9399 23.7406L15.4832 22.1105L11.6716 28.9003L10.8747 21.103L3.41805 19.473L10.3822 16.284L9.58539 8.48675Z" fill="white"/>
<path d="M39.8293 15.3371L40.3351 21.5877L46.2716 23.0244L40.6478 25.4508L41.1536 31.7013L37.1721 26.9503L31.5482 29.3767L34.7113 24.014L30.7297 19.263L36.6662 20.6997L39.8293 15.3371Z" fill="white"/>
<path d="M19.9014 32L20.7467 34.9482H23.4822L21.2691 36.7703L22.1145 39.7185L19.9014 37.8964L17.6883 39.7185L18.5336 36.7703L16.3205 34.9482H19.056L19.9014 32Z" fill="white"/>
<path d="M40.9544 38.6583L42.4791 41.3742L45.4617 40.7222L43.4214 43.0528L44.946 45.7687L42.1603 44.4931L40.1199 46.8237L40.4387 43.7048L37.653 42.4292L40.6357 41.7772L40.9544 38.6583Z" fill="white"/>
<path d="M30.1211 0L31.0872 2.94819H34.2136L31.6843 4.77028L32.6504 7.71847L30.1211 5.89639L27.5919 7.71847L28.558 4.77028L26.0287 2.94819H29.155L30.1211 0Z" fill="white"/>
</svg>
